<svg width="32" height="30" viewBox="0 0 32 30" fill="none" xmlns="http://www.w3.org/2000/svg">
<path d="M15.9993 12.5C18.9449 12.5 21.3327 10.2614 21.3327 7.5C21.3327 4.73858 18.9449 2.5 15.9993 2.5C13.0538 2.5 10.666 4.73858 10.666 7.5C10.666 10.2614 13.0538 12.5 15.9993 12.5Z" stroke="#007bff" stroke-width="2"/>
<path d="M26.664 22.7373C26.6673 22.5321 26.6673 22.3236 26.6673 22.1123C26.6673 19.0057 21.8917 16.4873 16.0007 16.4873C10.1096 16.4873 5.33398 19.0057 5.33398 22.1123C5.33398 25.2189 5.33398 27.7373 16.0007 27.7373C18.9753 27.7373 21.1204 27.5414 22.6673 27.1916" stroke="#007bff" stroke-width="2" stroke-linecap="round"/>
</svg>
